<?xml version="1.0" standalone="no"?>
<!DOCTYPE svg PUBLIC "-//W3C//DTD SVG 20010904//EN"
 "http://www.w3.org/TR/2001/REC-SVG-20010904/DTD/svg10.dtd">
<svg version="1.0" xmlns="http://www.w3.org/2000/svg"
 viewBox="0 0 2600.000000 2600.000000"
 preserveAspectRatio="xMidYMid meet">
<metadata>
Created by potrace 1.15, written by Peter Selinger 2001-2017
</metadata>
<g transform="translate(0.000000,2600.000000) scale(0.100000,-0.100000)"
fill="#000000" stroke="none">
<path d="M4385 23093 c-133 -48 -214 -170 -202 -303 5 -60 41 -143 76 -174 12
-11 21 -27 21 -36 0 -83 96 -204 185 -233 28 -9 626 -111 1330 -227 704 -116
1292 -213 1307 -216 23 -4 32 -18 63 -97 384 -955 387 -1956 12 -3142 -156
-493 -360 -978 -683 -1625 -238 -476 -343 -669 -1111 -2045 -603 -1081 -972
-1827 -1219 -2462 l-59 -153 -852 0 -853 0 0 -107 c0 -117 16 -460 26 -560 l6
-63 9779 0 9779 0 0 30 c0 16 4 107 9 202 6 95 12 246 15 336 l5 162 -4664 0
c-4177 0 -4665 2 -4665 15 0 9 13 89 30 179 108 603 307 1278 715 2426 333
938 491 1415 610 1845 181 651 278 1183 316 1730 14 211 6 697 -15 888 -47
415 -143 829 -272 1168 -25 66 -44 122 -42 124 2 2 2359 -385 5238 -861 4111
-680 5248 -864 5295 -861 34 2 82 15 110 28 64 30 223 188 289 288 219 329
118 666 -234 781 -36 11 -132 32 -215 45 -455 73 -3997 566 -8985 1250 -1064
145 -1951 267 -1971 270 -28 5 -44 17 -78 61 l-42 54 28 0 c15 0 2543 -196
5618 -436 4867 -379 5597 -434 5642 -424 72 16 135 61 218 158 237 274 290
557 142 758 -82 111 -206 178 -379 203 -164 24 -2327 140 -7968 426 -3006 152
-11078 556 -12190 610 -95 5 -124 2 -165 -12z m3486 -853 c194 -21 259 -40
379 -110 90 -53 205 -144 258 -206 93 -108 258 -483 351 -800 192 -649 212
-1358 60 -2119 -129 -644 -376 -1340 -795 -2240 -107 -230 -453 -923 -839
-1680 -623 -1224 -872 -1776 -1125 -2497 l-73 -208 -675 0 c-535 0 -673 3
-669 13 133 325 292 667 493 1067 238 473 298 584 1121 2060 455 816 794 1481
1006 1970 379 879 581 1581 663 2307 21 193 30 683 15 869 -42 514 -159 983
-362 1457 -32 77 -59 141 -59 143 0 2 17 2 38 -1 20 -3 116 -14 213 -25z
m1474 -156 c166 -18 232 -36 350 -97 195 -102 321 -225 420 -412 247 -466 391
-931 457 -1480 20 -171 17 -780 -6 -965 -77 -638 -228 -1207 -518 -1965 -171
-445 -341 -837 -780 -1790 -422 -917 -572 -1256 -740 -1675 -149 -373 -300
-802 -379 -1080 -17 -58 -39 -135 -50 -172 l-20 -68 -679 0 c-423 0 -680 4
-680 9 0 13 116 327 178 481 221 550 506 1144 1246 2595 648 1269 961 1998
1195 2781 317 1063 359 2043 125 2924 -67 254 -179 556 -290 789 -35 74 -64
138 -64 143 0 5 19 7 43 4 23 -3 110 -13 192 -22z m1450 -154 c95 -11 196 -27
222 -36 181 -60 415 -218 506 -342 134 -181 363 -662 457 -957 290 -912 265
-1853 -81 -3065 -152 -531 -353 -1073 -849 -2285 -540 -1321 -778 -2008 -930
-2685 -16 -74 -32 -145 -35 -157 l-5 -23 -690 0 c-380 0 -690 3 -690 6 0 15
74 253 134 429 193 571 410 1088 941 2240 494 1072 659 1453 850 1960 635
1682 728 2962 306 4174 -77 220 -136 359 -246 579 -58 114 -87 182 -78 182 7
0 92 -9 188 -20z m1466 -155 c205 -22 302 -53 462 -148 150 -89 263 -189 332
-293 645 -970 852 -2040 645 -3329 -106 -661 -289 -1293 -750 -2595 -323 -913
-454 -1306 -579 -1740 -109 -380 -207 -803 -258 -1117 l-28 -173 -697 0 c-399
0 -698 4 -698 9 0 21 76 321 121 481 160 561 349 1073 789 2150 348 850 526
1308 665 1709 291 840 444 1514 495 2181 13 173 13 622 0 782 -56 666 -231
1265 -541 1850 -43 81 -89 164 -102 185 -13 21 -27 44 -31 51 -9 16 -1 15 175
-3z"/>
<path d="M2494 11033 c3 -16 10 -64 16 -108 6 -44 25 -155 40 -246 395 -2254
1562 -4289 3320 -5785 1329 -1131 2963 -1892 4684 -2184 2480 -420 5002 114
7081 1500 2025 1349 3479 3399 4074 5744 85 332 183 829 207 1044 l7 62 -9718
0 -9717 0 6 -27z"/>
</g>
</svg>
